<svg width="14" height="14" viewBox="0 0 14 14" fill="none" xmlns="http://www.w3.org/2000/svg">
<path d="M0.666667 0C0.489856 0 0.320286 0.0702379 0.195262 0.195262C0.0702379 0.320286 0 0.489856 0 0.666667V4.66667C0 4.84348 0.0702379 5.01305 0.195262 5.13807C0.320286 5.2631 0.489856 5.33333 0.666667 5.33333C0.843478 5.33333 1.01305 5.2631 1.13807 5.13807C1.2631 5.01305 1.33333 4.84348 1.33333 4.66667V2.276L4.862 5.80467C4.98774 5.92611 5.15614 5.9933 5.33093 5.99178C5.50573 5.99026 5.67294 5.92015 5.79655 5.79655C5.92015 5.67294 5.99026 5.50573 5.99178 5.33093C5.9933 5.15614 5.92611 4.98774 5.80467 4.862L2.276 1.33333H4.66667C4.84348 1.33333 5.01305 1.2631 5.13807 1.13807C5.2631 1.01305 5.33333 0.843478 5.33333 0.666667C5.33333 0.489856 5.2631 0.320286 5.13807 0.195262C5.01305 0.0702379 4.84348 0 4.66667 0H0.666667ZM12 4.66667V2.276L8.47133 5.80467C8.3456 5.92611 8.1772 5.9933 8.0024 5.99178C7.8276 5.99026 7.66039 5.92015 7.53679 5.79655C7.41318 5.67294 7.34307 5.50573 7.34155 5.33093C7.34003 5.15614 7.40723 4.98774 7.52867 4.862L11.0573 1.33333H8.66667C8.48986 1.33333 8.32029 1.2631 8.19526 1.13807C8.07024 1.01305 8 0.843478 8 0.666667C8 0.489856 8.07024 0.320286 8.19526 0.195262C8.32029 0.0702379 8.48986 0 8.66667 0H12.6667C12.8435 0 13.013 0.0702379 13.1381 0.195262C13.2631 0.320286 13.3333 0.489856 13.3333 0.666667V4.66667C13.3333 4.84348 13.2631 5.01305 13.1381 5.13807C13.013 5.2631 12.8435 5.33333 12.6667 5.33333C12.4899 5.33333 12.3203 5.2631 12.1953 5.13807C12.0702 5.01305 12 4.84348 12 4.66667ZM13.3333 12.6667C13.3333 12.8435 13.2631 13.013 13.1381 13.1381C13.013 13.2631 12.8435 13.3333 12.6667 13.3333H8.66667C8.48986 13.3333 8.32029 13.2631 8.19526 13.1381C8.07024 13.013 8 12.8435 8 12.6667C8 12.4899 8.07024 12.3203 8.19526 12.1953C8.32029 12.0702 8.48986 12 8.66667 12H11.0573L7.52867 8.47133C7.40723 8.3456 7.34003 8.1772 7.34155 8.0024C7.34307 7.8276 7.41318 7.66039 7.53679 7.53679C7.66039 7.41318 7.8276 7.34307 8.0024 7.34155C8.1772 7.34003 8.3456 7.40723 8.47133 7.52867L12 11.0573V8.66667C12 8.48986 12.0702 8.32029 12.1953 8.19526C12.3203 8.07024 12.4899 8 12.6667 8C12.8435 8 13.013 8.07024 13.1381 8.19526C13.2631 8.32029 13.3333 8.48986 13.3333 8.66667V12.6667ZM0 12.6667C0 12.8435 0.0702379 13.013 0.195262 13.1381C0.320286 13.2631 0.489856 13.3333 0.666667 13.3333H4.66667C4.84348 13.3333 5.01305 13.2631 5.13807 13.1381C5.2631 13.013 5.33333 12.8435 5.33333 12.6667C5.33333 12.4899 5.2631 12.3203 5.13807 12.1953C5.01305 12.0702 4.84348 12 4.66667 12H2.276L5.80467 8.47133C5.92611 8.3456 5.9933 8.1772 5.99178 8.0024C5.99026 7.8276 5.92015 7.66039 5.79655 7.53679C5.67294 7.41318 5.50573 7.34307 5.33093 7.34155C5.15614 7.34003 4.98774 7.40723 4.862 7.52867L1.33333 11.0573V8.66667C1.33333 8.48986 1.2631 8.32029 1.13807 8.19526C1.01305 8.07024 0.843478 8 0.666667 8C0.489856 8 0.320286 8.07024 0.195262 8.19526C0.0702379 8.32029 0 8.48986 0 8.66667V12.6667Z" fill="black"/>
</svg>
